<mxfile host="app.diagrams.net" modified="2024-02-03T09:46:22.902Z" agent="Mozilla/5.0 (Windows NT 10.0; Win64; x64) AppleWebKit/537.36 (KHTML, like Gecko) Chrome/121.0.0.0 Safari/537.36" etag="cqG4HgYJNSj8Se8lhoIa" version="23.1.1" type="device">
  <diagram name="Trang-1" id="ftQ13iq0UPrJD98AJDJP">
    <mxGraphModel dx="1674" dy="738" grid="1" gridSize="10" guides="1" tooltips="1" connect="1" arrows="1" fold="1" page="1" pageScale="1" pageWidth="827" pageHeight="1169" math="0" shadow="0">
      <root>
        <mxCell id="0" />
        <mxCell id="1" parent="0" />
        <mxCell id="dmnvGdVYhQ1c60S4Svs4-1" value="" style="rounded=1;whiteSpace=wrap;html=1;fillColor=#dae8fc;strokeColor=#6c8ebf;" vertex="1" parent="1">
          <mxGeometry x="89" y="30" width="841" height="360" as="geometry" />
        </mxCell>
        <mxCell id="dmnvGdVYhQ1c60S4Svs4-2" value="" style="rounded=1;whiteSpace=wrap;html=1;fillColor=#fff2cc;strokeColor=#d6b656;" vertex="1" parent="1">
          <mxGeometry x="89" y="400" width="841" height="360" as="geometry" />
        </mxCell>
        <mxCell id="dmnvGdVYhQ1c60S4Svs4-3" value="&lt;b&gt;User-space&lt;/b&gt;" style="text;html=1;strokeColor=none;fillColor=none;align=center;verticalAlign=middle;whiteSpace=wrap;rounded=0;" vertex="1" parent="1">
          <mxGeometry x="100" y="50" width="100" height="30" as="geometry" />
        </mxCell>
        <mxCell id="dmnvGdVYhQ1c60S4Svs4-4" value="&lt;b&gt;Kernel-space&lt;/b&gt;" style="text;html=1;strokeColor=none;fillColor=none;align=center;verticalAlign=middle;whiteSpace=wrap;rounded=0;" vertex="1" parent="1">
          <mxGeometry x="100" y="420" width="100" height="30" as="geometry" />
        </mxCell>
        <mxCell id="dmnvGdVYhQ1c60S4Svs4-5" value="epoll instance" style="ellipse;whiteSpace=wrap;html=1;aspect=fixed;" vertex="1" parent="1">
          <mxGeometry x="634" y="549" width="70" height="70" as="geometry" />
        </mxCell>
        <mxCell id="dmnvGdVYhQ1c60S4Svs4-6" value="Process A" style="swimlane;whiteSpace=wrap;html=1;" vertex="1" parent="1">
          <mxGeometry x="670" y="80" width="180" height="190" as="geometry" />
        </mxCell>
        <mxCell id="dmnvGdVYhQ1c60S4Svs4-35" value="m_epfd" style="rounded=1;whiteSpace=wrap;html=1;" vertex="1" parent="dmnvGdVYhQ1c60S4Svs4-6">
          <mxGeometry x="100" y="50" width="60" height="20" as="geometry" />
        </mxCell>
        <mxCell id="dmnvGdVYhQ1c60S4Svs4-16" value="" style="group" vertex="1" connectable="0" parent="1">
          <mxGeometry x="464" y="469" width="90" height="150" as="geometry" />
        </mxCell>
        <mxCell id="dmnvGdVYhQ1c60S4Svs4-8" value="Interest List" style="swimlane;whiteSpace=wrap;html=1;" vertex="1" parent="dmnvGdVYhQ1c60S4Svs4-16">
          <mxGeometry width="90" height="150" as="geometry" />
        </mxCell>
        <mxCell id="dmnvGdVYhQ1c60S4Svs4-10" value="fd32" style="rounded=0;whiteSpace=wrap;html=1;" vertex="1" parent="dmnvGdVYhQ1c60S4Svs4-8">
          <mxGeometry y="20" width="90" height="25" as="geometry" />
        </mxCell>
        <mxCell id="dmnvGdVYhQ1c60S4Svs4-11" value="fd55" style="rounded=0;whiteSpace=wrap;html=1;" vertex="1" parent="dmnvGdVYhQ1c60S4Svs4-16">
          <mxGeometry y="45" width="90" height="25" as="geometry" />
        </mxCell>
        <mxCell id="dmnvGdVYhQ1c60S4Svs4-12" value="fd101" style="rounded=0;whiteSpace=wrap;html=1;" vertex="1" parent="dmnvGdVYhQ1c60S4Svs4-16">
          <mxGeometry y="70" width="90" height="25" as="geometry" />
        </mxCell>
        <mxCell id="dmnvGdVYhQ1c60S4Svs4-13" value="fd121" style="rounded=0;whiteSpace=wrap;html=1;" vertex="1" parent="dmnvGdVYhQ1c60S4Svs4-16">
          <mxGeometry y="95" width="90" height="25" as="geometry" />
        </mxCell>
        <mxCell id="dmnvGdVYhQ1c60S4Svs4-14" value="fd210" style="rounded=0;whiteSpace=wrap;html=1;" vertex="1" parent="dmnvGdVYhQ1c60S4Svs4-16">
          <mxGeometry y="120" width="90" height="30" as="geometry" />
        </mxCell>
        <mxCell id="dmnvGdVYhQ1c60S4Svs4-17" value="Ready List" style="swimlane;whiteSpace=wrap;html=1;" vertex="1" parent="1">
          <mxGeometry x="790" y="560" width="90" height="120" as="geometry" />
        </mxCell>
        <mxCell id="dmnvGdVYhQ1c60S4Svs4-18" value="fd32" style="rounded=0;whiteSpace=wrap;html=1;" vertex="1" parent="dmnvGdVYhQ1c60S4Svs4-17">
          <mxGeometry y="20" width="90" height="25" as="geometry" />
        </mxCell>
        <mxCell id="dmnvGdVYhQ1c60S4Svs4-19" value="fd121" style="rounded=0;whiteSpace=wrap;html=1;" vertex="1" parent="dmnvGdVYhQ1c60S4Svs4-17">
          <mxGeometry y="45" width="90" height="25" as="geometry" />
        </mxCell>
        <mxCell id="dmnvGdVYhQ1c60S4Svs4-20" value="struct &lt;b&gt;epoll_event&lt;/b&gt;" style="swimlane;fontStyle=0;childLayout=stackLayout;horizontal=1;startSize=30;horizontalStack=0;resizeParent=1;resizeParentMax=0;resizeLast=0;collapsible=1;marginBottom=0;whiteSpace=wrap;html=1;" vertex="1" parent="1">
          <mxGeometry x="320" y="120" width="330" height="90" as="geometry" />
        </mxCell>
        <mxCell id="dmnvGdVYhQ1c60S4Svs4-21" value="(uint32_t) &lt;b&gt;events&lt;/b&gt;: read,write,level-trigger,edge-trigger,..." style="text;strokeColor=none;fillColor=none;align=left;verticalAlign=middle;spacingLeft=4;spacingRight=4;overflow=hidden;points=[[0,0.5],[1,0.5]];portConstraint=eastwest;rotatable=0;whiteSpace=wrap;html=1;" vertex="1" parent="dmnvGdVYhQ1c60S4Svs4-20">
          <mxGeometry y="30" width="330" height="30" as="geometry" />
        </mxCell>
        <mxCell id="dmnvGdVYhQ1c60S4Svs4-22" value="(void* ptr) &lt;b&gt;data&lt;/b&gt;: user data (fd + callback + userEventMask)" style="text;strokeColor=none;fillColor=none;align=left;verticalAlign=middle;spacingLeft=4;spacingRight=4;overflow=hidden;points=[[0,0.5],[1,0.5]];portConstraint=eastwest;rotatable=0;whiteSpace=wrap;html=1;" vertex="1" parent="dmnvGdVYhQ1c60S4Svs4-20">
          <mxGeometry y="60" width="330" height="30" as="geometry" />
        </mxCell>
        <mxCell id="dmnvGdVYhQ1c60S4Svs4-29" value="struct&amp;nbsp;&lt;b style=&quot;border-color: var(--border-color);&quot;&gt;FdHandler&lt;/b&gt;" style="swimlane;fontStyle=0;childLayout=stackLayout;horizontal=1;startSize=30;horizontalStack=0;resizeParent=1;resizeParentMax=0;resizeLast=0;collapsible=1;marginBottom=0;whiteSpace=wrap;html=1;" vertex="1" parent="1">
          <mxGeometry x="130" y="230" width="160" height="120" as="geometry" />
        </mxCell>
        <mxCell id="dmnvGdVYhQ1c60S4Svs4-30" value="(int)&amp;nbsp;&lt;b style=&quot;border-color: var(--border-color);&quot;&gt;fd&lt;/b&gt;" style="text;strokeColor=none;fillColor=none;align=left;verticalAlign=middle;spacingLeft=4;spacingRight=4;overflow=hidden;points=[[0,0.5],[1,0.5]];portConstraint=eastwest;rotatable=0;whiteSpace=wrap;html=1;" vertex="1" parent="dmnvGdVYhQ1c60S4Svs4-29">
          <mxGeometry y="30" width="160" height="30" as="geometry" />
        </mxCell>
        <mxCell id="dmnvGdVYhQ1c60S4Svs4-31" value="(uint32_t) &lt;b&gt;userEventMask&lt;/b&gt;" style="text;strokeColor=none;fillColor=none;align=left;verticalAlign=middle;spacingLeft=4;spacingRight=4;overflow=hidden;points=[[0,0.5],[1,0.5]];portConstraint=eastwest;rotatable=0;whiteSpace=wrap;html=1;" vertex="1" parent="dmnvGdVYhQ1c60S4Svs4-29">
          <mxGeometry y="60" width="160" height="30" as="geometry" />
        </mxCell>
        <mxCell id="dmnvGdVYhQ1c60S4Svs4-32" value="(CallbackFunc) &lt;b&gt;callback&lt;/b&gt;" style="text;strokeColor=none;fillColor=none;align=left;verticalAlign=middle;spacingLeft=4;spacingRight=4;overflow=hidden;points=[[0,0.5],[1,0.5]];portConstraint=eastwest;rotatable=0;whiteSpace=wrap;html=1;" vertex="1" parent="dmnvGdVYhQ1c60S4Svs4-29">
          <mxGeometry y="90" width="160" height="30" as="geometry" />
        </mxCell>
        <mxCell id="dmnvGdVYhQ1c60S4Svs4-36" value="" style="endArrow=classic;html=1;rounded=0;exitX=0.5;exitY=1;exitDx=0;exitDy=0;strokeWidth=1;" edge="1" parent="1" source="dmnvGdVYhQ1c60S4Svs4-35" target="dmnvGdVYhQ1c60S4Svs4-5">
          <mxGeometry width="50" height="50" relative="1" as="geometry">
            <mxPoint x="370" y="300" as="sourcePoint" />
            <mxPoint x="420" y="250" as="targetPoint" />
          </mxGeometry>
        </mxCell>
        <mxCell id="dmnvGdVYhQ1c60S4Svs4-37" value="&lt;b&gt;epoll_create1&lt;br&gt;&lt;/b&gt;EPOLL_CLOEXC" style="text;html=1;strokeColor=none;fillColor=none;align=center;verticalAlign=middle;whiteSpace=wrap;rounded=0;" vertex="1" parent="1">
          <mxGeometry x="710" y="360" width="110" height="30" as="geometry" />
        </mxCell>
        <mxCell id="dmnvGdVYhQ1c60S4Svs4-38" value="" style="curved=1;endArrow=classic;html=1;rounded=0;exitX=0.5;exitY=0;exitDx=0;exitDy=0;entryX=0;entryY=0.5;entryDx=0;entryDy=0;dashed=1;" edge="1" parent="1" source="dmnvGdVYhQ1c60S4Svs4-29" target="dmnvGdVYhQ1c60S4Svs4-22">
          <mxGeometry width="50" height="50" relative="1" as="geometry">
            <mxPoint x="230" y="210" as="sourcePoint" />
            <mxPoint x="280" y="160" as="targetPoint" />
            <Array as="points">
              <mxPoint x="210" y="200" />
              <mxPoint x="210" y="180" />
            </Array>
          </mxGeometry>
        </mxCell>
        <mxCell id="dmnvGdVYhQ1c60S4Svs4-39" value="" style="endArrow=classic;html=1;rounded=0;exitX=0.5;exitY=1;exitDx=0;exitDy=0;entryX=0;entryY=0;entryDx=0;entryDy=0;" edge="1" parent="1" source="dmnvGdVYhQ1c60S4Svs4-35" target="dmnvGdVYhQ1c60S4Svs4-5">
          <mxGeometry width="50" height="50" relative="1" as="geometry">
            <mxPoint x="480" y="380" as="sourcePoint" />
            <mxPoint x="530" y="330" as="targetPoint" />
          </mxGeometry>
        </mxCell>
        <mxCell id="dmnvGdVYhQ1c60S4Svs4-40" value="&lt;b&gt;epoll_ctl()&lt;/b&gt;&lt;br&gt;struct epoll_event &lt;b&gt;epEvent&lt;/b&gt;&lt;br&gt;EPOLL_CTL_ADD/MOD/DEL" style="text;html=1;strokeColor=none;fillColor=none;align=center;verticalAlign=middle;whiteSpace=wrap;rounded=0;" vertex="1" parent="1">
          <mxGeometry x="543" y="330" width="180" height="50" as="geometry" />
        </mxCell>
        <mxCell id="dmnvGdVYhQ1c60S4Svs4-41" value="" style="endArrow=classic;html=1;rounded=0;exitX=0;exitY=0;exitDx=0;exitDy=0;entryX=1;entryY=0.5;entryDx=0;entryDy=0;" edge="1" parent="1" source="dmnvGdVYhQ1c60S4Svs4-5" target="dmnvGdVYhQ1c60S4Svs4-10">
          <mxGeometry width="50" height="50" relative="1" as="geometry">
            <mxPoint x="474" y="399" as="sourcePoint" />
            <mxPoint x="524" y="349" as="targetPoint" />
          </mxGeometry>
        </mxCell>
        <mxCell id="dmnvGdVYhQ1c60S4Svs4-42" value="" style="endArrow=classic;html=1;rounded=0;exitX=0;exitY=0;exitDx=0;exitDy=0;entryX=1;entryY=0.5;entryDx=0;entryDy=0;" edge="1" parent="1" source="dmnvGdVYhQ1c60S4Svs4-5" target="dmnvGdVYhQ1c60S4Svs4-11">
          <mxGeometry width="50" height="50" relative="1" as="geometry">
            <mxPoint x="654" y="569" as="sourcePoint" />
            <mxPoint x="564" y="512" as="targetPoint" />
          </mxGeometry>
        </mxCell>
        <mxCell id="dmnvGdVYhQ1c60S4Svs4-43" value="&lt;b&gt;add/mod/del&lt;/b&gt;" style="text;html=1;strokeColor=none;fillColor=none;align=center;verticalAlign=middle;whiteSpace=wrap;rounded=0;" vertex="1" parent="1">
          <mxGeometry x="544" y="547" width="100" height="30" as="geometry" />
        </mxCell>
        <mxCell id="dmnvGdVYhQ1c60S4Svs4-44" value="" style="endArrow=classic;html=1;rounded=0;exitX=0.508;exitY=0.972;exitDx=0;exitDy=0;exitPerimeter=0;entryX=0.094;entryY=0.4;entryDx=0;entryDy=0;entryPerimeter=0;dashed=1;" edge="1" parent="1" source="dmnvGdVYhQ1c60S4Svs4-22" target="dmnvGdVYhQ1c60S4Svs4-40">
          <mxGeometry width="50" height="50" relative="1" as="geometry">
            <mxPoint x="480" y="380" as="sourcePoint" />
            <mxPoint x="530" y="330" as="targetPoint" />
          </mxGeometry>
        </mxCell>
        <mxCell id="dmnvGdVYhQ1c60S4Svs4-45" value="Inode table" style="swimlane;whiteSpace=wrap;html=1;" vertex="1" parent="1">
          <mxGeometry x="165" y="570" width="90" height="120" as="geometry" />
        </mxCell>
        <mxCell id="dmnvGdVYhQ1c60S4Svs4-46" value="file1" style="rounded=0;whiteSpace=wrap;html=1;" vertex="1" parent="dmnvGdVYhQ1c60S4Svs4-45">
          <mxGeometry y="20" width="90" height="25" as="geometry" />
        </mxCell>
        <mxCell id="dmnvGdVYhQ1c60S4Svs4-47" value="socket1" style="rounded=0;whiteSpace=wrap;html=1;" vertex="1" parent="1">
          <mxGeometry x="165" y="615" width="90" height="25" as="geometry" />
        </mxCell>
        <mxCell id="dmnvGdVYhQ1c60S4Svs4-48" value="socket2" style="rounded=0;whiteSpace=wrap;html=1;" vertex="1" parent="1">
          <mxGeometry x="165" y="640" width="90" height="25" as="geometry" />
        </mxCell>
        <mxCell id="dmnvGdVYhQ1c60S4Svs4-49" value="" style="endArrow=classic;html=1;rounded=0;entryX=1;entryY=0.5;entryDx=0;entryDy=0;exitX=0;exitY=0.5;exitDx=0;exitDy=0;" edge="1" parent="1" source="dmnvGdVYhQ1c60S4Svs4-10" target="dmnvGdVYhQ1c60S4Svs4-46">
          <mxGeometry width="50" height="50" relative="1" as="geometry">
            <mxPoint x="480" y="550" as="sourcePoint" />
            <mxPoint x="530" y="500" as="targetPoint" />
          </mxGeometry>
        </mxCell>
        <mxCell id="dmnvGdVYhQ1c60S4Svs4-50" value="" style="endArrow=classic;html=1;rounded=0;entryX=1;entryY=0.5;entryDx=0;entryDy=0;exitX=0;exitY=0.5;exitDx=0;exitDy=0;" edge="1" parent="1" source="dmnvGdVYhQ1c60S4Svs4-13" target="dmnvGdVYhQ1c60S4Svs4-47">
          <mxGeometry width="50" height="50" relative="1" as="geometry">
            <mxPoint x="474" y="512" as="sourcePoint" />
            <mxPoint x="360" y="463" as="targetPoint" />
          </mxGeometry>
        </mxCell>
        <mxCell id="dmnvGdVYhQ1c60S4Svs4-51" value="&lt;b&gt;...&lt;/b&gt;" style="rounded=0;whiteSpace=wrap;html=1;" vertex="1" parent="1">
          <mxGeometry x="165" y="665" width="90" height="25" as="geometry" />
        </mxCell>
        <mxCell id="dmnvGdVYhQ1c60S4Svs4-52" value="" style="endArrow=classic;html=1;rounded=0;entryX=1;entryY=0.5;entryDx=0;entryDy=0;exitX=0;exitY=0.5;exitDx=0;exitDy=0;" edge="1" parent="1" source="dmnvGdVYhQ1c60S4Svs4-11" target="dmnvGdVYhQ1c60S4Svs4-48">
          <mxGeometry width="50" height="50" relative="1" as="geometry">
            <mxPoint x="474" y="587" as="sourcePoint" />
            <mxPoint x="360" y="488" as="targetPoint" />
          </mxGeometry>
        </mxCell>
        <mxCell id="dmnvGdVYhQ1c60S4Svs4-53" value="Kernel sees data arrived file1 and socket1 -&amp;gt; add fd32 and fd121 to ready list" style="text;html=1;strokeColor=none;fillColor=none;align=center;verticalAlign=middle;whiteSpace=wrap;rounded=0;" vertex="1" parent="1">
          <mxGeometry x="125" y="469" width="185" height="60" as="geometry" />
        </mxCell>
        <mxCell id="dmnvGdVYhQ1c60S4Svs4-56" value="" style="endArrow=classic;html=1;rounded=0;exitX=0.5;exitY=1;exitDx=0;exitDy=0;" edge="1" parent="1" source="dmnvGdVYhQ1c60S4Svs4-35" target="dmnvGdVYhQ1c60S4Svs4-17">
          <mxGeometry width="50" height="50" relative="1" as="geometry">
            <mxPoint x="810" y="160" as="sourcePoint" />
            <mxPoint x="654" y="569" as="targetPoint" />
          </mxGeometry>
        </mxCell>
        <mxCell id="dmnvGdVYhQ1c60S4Svs4-58" value="&lt;b&gt;epoll_wait&lt;br&gt;&lt;/b&gt;to get events from fds in ready list" style="text;html=1;strokeColor=none;fillColor=none;align=center;verticalAlign=middle;whiteSpace=wrap;rounded=0;" vertex="1" parent="1">
          <mxGeometry x="810" y="300" width="110" height="50" as="geometry" />
        </mxCell>
        <mxCell id="dmnvGdVYhQ1c60S4Svs4-59" value="" style="rounded=0;whiteSpace=wrap;html=1;" vertex="1" parent="1">
          <mxGeometry x="790" y="630" width="90" height="25" as="geometry" />
        </mxCell>
        <mxCell id="dmnvGdVYhQ1c60S4Svs4-60" value="" style="rounded=0;whiteSpace=wrap;html=1;" vertex="1" parent="1">
          <mxGeometry x="790" y="655" width="90" height="25" as="geometry" />
        </mxCell>
      </root>
    </mxGraphModel>
  </diagram>
</mxfile>
